<?xml version="1.0" encoding="UTF-8" standalone="no"?>
<!DOCTYPE svg PUBLIC "-//W3C//DTD SVG 1.1//EN"
 "http://www.w3.org/Graphics/SVG/1.1/DTD/svg11.dtd">
<!-- Generated by graphviz version 12.1.1 (20240910.0053)
 -->
<!-- Title: INFRA Pages: 1 -->
<svg width="4372pt" height="80pt"
 viewBox="0.00 0.00 4372.22 80.00" xmlns="http://www.w3.org/2000/svg" xmlns:xlink="http://www.w3.org/1999/xlink">
<g id="graph0" class="graph" transform="scale(1 1) rotate(0) translate(4 76)">
<title>INFRA</title>
<polygon fill="white" stroke="none" points="-4,4 -4,-76 4368.22,-76 4368.22,4 -4,4"/>
<!-- SQLiteDatabase -->
<g id="node1" class="node">
<title>SQLiteDatabase</title>
<path fill="#ffcfb3" stroke="black" stroke-width="2" d="M179.37,-65.45C179.37,-69.07 139.17,-72 89.69,-72 40.2,-72 0,-69.07 0,-65.45 0,-65.45 0,-6.55 0,-6.55 0,-2.93 40.2,0 89.69,0 139.17,0 179.37,-2.93 179.37,-6.55 179.37,-6.55 179.37,-65.45 179.37,-65.45"/>
<path fill="none" stroke="black" stroke-width="2" d="M179.37,-65.45C179.37,-61.84 139.17,-58.91 89.69,-58.91 40.2,-58.91 0,-61.84 0,-65.45"/>
<text text-anchor="middle" x="89.69" y="-40.2" font-family="Arial" font-size="14.00">SQLiteDatabase</text>
<text text-anchor="middle" x="89.69" y="-23.4" font-family="Arial" font-size="14.00">(AWS::DynamoDB::Table)</text>
</g>
<!-- CurlTool -->
<g id="node2" class="node">
<title>CurlTool</title>
<path fill="#b7e0ff" stroke="black" stroke-width="2" d="M362.22,-72C362.22,-72 209.16,-72 209.16,-72 203.16,-72 197.16,-66 197.16,-60 197.16,-60 197.16,-12 197.16,-12 197.16,-6 203.16,0 209.16,0 209.16,0 362.22,0 362.22,0 368.22,0 374.22,-6 374.22,-12 374.22,-12 374.22,-60 374.22,-60 374.22,-66 368.22,-72 362.22,-72"/>
<text text-anchor="middle" x="285.69" y="-40.2" font-family="Arial" font-size="14.00">CurlTool</text>
<text text-anchor="middle" x="285.69" y="-23.4" font-family="Arial" font-size="14.00">(AWS::Lambda::Function)</text>
</g>
<!-- FFmpegTool -->
<g id="node3" class="node">
<title>FFmpegTool</title>
<path fill="#b7e0ff" stroke="black" stroke-width="2" d="M557.22,-72C557.22,-72 404.16,-72 404.16,-72 398.16,-72 392.16,-66 392.16,-60 392.16,-60 392.16,-12 392.16,-12 392.16,-6 398.16,0 404.16,0 404.16,0 557.22,0 557.22,0 563.22,0 569.22,-6 569.22,-12 569.22,-12 569.22,-60 569.22,-60 569.22,-66 563.22,-72 557.22,-72"/>
<text text-anchor="middle" x="480.69" y="-40.2" font-family="Arial" font-size="14.00">FFmpegTool</text>
<text text-anchor="middle" x="480.69" y="-23.4" font-family="Arial" font-size="14.00">(AWS::Lambda::Function)</text>
</g>
<!-- QRCodeGenerator -->
<g id="node4" class="node">
<title>QRCodeGenerator</title>
<path fill="#b7e0ff" stroke="black" stroke-width="2" d="M752.22,-72C752.22,-72 599.16,-72 599.16,-72 593.16,-72 587.16,-66 587.16,-60 587.16,-60 587.16,-12 587.16,-12 587.16,-6 593.16,0 599.16,0 599.16,0 752.22,0 752.22,0 758.22,0 764.22,-6 764.22,-12 764.22,-12 764.22,-60 764.22,-60 764.22,-66 758.22,-72 752.22,-72"/>
<text text-anchor="middle" x="675.69" y="-40.2" font-family="Arial" font-size="14.00">QRCodeGenerator</text>
<text text-anchor="middle" x="675.69" y="-23.4" font-family="Arial" font-size="14.00">(AWS::Lambda::Function)</text>
</g>
<!-- KnowledgeGraph -->
<g id="node5" class="node">
<title>KnowledgeGraph</title>
<path fill="#ffcfb3" stroke="black" stroke-width="2" d="M971.43,-65.45C971.43,-69.07 928.97,-72 876.69,-72 824.41,-72 781.94,-69.07 781.94,-65.45 781.94,-65.45 781.94,-6.55 781.94,-6.55 781.94,-2.93 824.41,0 876.69,0 928.97,0 971.43,-2.93 971.43,-6.55 971.43,-6.55 971.43,-65.45 971.43,-65.45"/>
<path fill="none" stroke="black" stroke-width="2" d="M971.43,-65.45C971.43,-61.84 928.97,-58.91 876.69,-58.91 824.41,-58.91 781.94,-61.84 781.94,-65.45"/>
<text text-anchor="middle" x="876.69" y="-40.2" font-family="Arial" font-size="14.00">KnowledgeGraph</text>
<text text-anchor="middle" x="876.69" y="-23.4" font-family="Arial" font-size="14.00">(AWS::Neptune::DBCluster)</text>
</g>
<!-- HeadlessChromeBrowser -->
<g id="node6" class="node">
<title>HeadlessChromeBrowser</title>
<path fill="#b7e0ff" stroke="black" stroke-width="2" d="M1154.22,-72C1154.22,-72 1001.16,-72 1001.16,-72 995.16,-72 989.16,-66 989.16,-60 989.16,-60 989.16,-12 989.16,-12 989.16,-6 995.16,0 1001.16,0 1001.16,0 1154.22,0 1154.22,0 1160.22,0 1166.22,-6 1166.22,-12 1166.22,-12 1166.22,-60 1166.22,-60 1166.22,-66 1160.22,-72 1154.22,-72"/>
<text text-anchor="middle" x="1077.69" y="-40.2" font-family="Arial" font-size="14.00">HeadlessChromeBrowser</text>
<text text-anchor="middle" x="1077.69" y="-23.4" font-family="Arial" font-size="14.00">(AWS::Lambda::Function)</text>
</g>
<!-- SequentialThinkingTool -->
<g id="node7" class="node">
<title>SequentialThinkingTool</title>
<path fill="#b7e0ff" stroke="black" stroke-width="2" d="M1349.22,-72C1349.22,-72 1196.16,-72 1196.16,-72 1190.16,-72 1184.16,-66 1184.16,-60 1184.16,-60 1184.16,-12 1184.16,-12 1184.16,-6 1190.16,0 1196.16,0 1196.16,0 1349.22,0 1349.22,0 1355.22,0 1361.22,-6 1361.22,-12 1361.22,-12 1361.22,-60 1361.22,-60 1361.22,-66 1355.22,-72 1349.22,-72"/>
<text text-anchor="middle" x="1272.69" y="-40.2" font-family="Arial" font-size="14.00">SequentialThinkingTool</text>
<text text-anchor="middle" x="1272.69" y="-23.4" font-family="Arial" font-size="14.00">(AWS::Lambda::Function)</text>
</g>
<!-- StripeIntegration -->
<g id="node8" class="node">
<title>StripeIntegration</title>
<path fill="#b7e0ff" stroke="black" stroke-width="2" d="M1544.22,-72C1544.22,-72 1391.16,-72 1391.16,-72 1385.16,-72 1379.16,-66 1379.16,-60 1379.16,-60 1379.16,-12 1379.16,-12 1379.16,-6 1385.16,0 1391.16,0 1391.16,0 1544.22,0 1544.22,0 1550.22,0 1556.22,-6 1556.22,-12 1556.22,-12 1556.22,-60 1556.22,-60 1556.22,-66 1550.22,-72 1544.22,-72"/>
<text text-anchor="middle" x="1467.69" y="-40.2" font-family="Arial" font-size="14.00">StripeIntegration</text>
<text text-anchor="middle" x="1467.69" y="-23.4" font-family="Arial" font-size="14.00">(AWS::Lambda::Function)</text>
</g>
<!-- BraveSearchAPI -->
<g id="node9" class="node">
<title>BraveSearchAPI</title>
<path fill="#e78f81" stroke="black" stroke-width="2" d="M1759.32,-72C1759.32,-72 1586.05,-72 1586.05,-72 1580.05,-72 1574.05,-66 1574.05,-60 1574.05,-60 1574.05,-12 1574.05,-12 1574.05,-6 1580.05,0 1586.05,0 1586.05,0 1759.32,0 1759.32,0 1765.32,0 1771.32,-6 1771.32,-12 1771.32,-12 1771.32,-60 1771.32,-60 1771.32,-66 1765.32,-72 1759.32,-72"/>
<text text-anchor="middle" x="1672.69" y="-40.2" font-family="Arial" font-size="14.00">BraveSearchAPI</text>
<text text-anchor="middle" x="1672.69" y="-23.4" font-family="Arial" font-size="14.00">(AWS::ApiGateway::RestApi)</text>
</g>
<!-- SlackIntegration -->
<g id="node10" class="node">
<title>SlackIntegration</title>
<path fill="#b7e0ff" stroke="black" stroke-width="2" d="M1954.22,-72C1954.22,-72 1801.16,-72 1801.16,-72 1795.16,-72 1789.16,-66 1789.16,-60 1789.16,-60 1789.16,-12 1789.16,-12 1789.16,-6 1795.16,0 1801.16,0 1801.16,0 1954.22,0 1954.22,0 1960.22,0 1966.22,-6 1966.22,-12 1966.22,-12 1966.22,-60 1966.22,-60 1966.22,-66 1960.22,-72 1954.22,-72"/>
<text text-anchor="middle" x="1877.69" y="-40.2" font-family="Arial" font-size="14.00">SlackIntegration</text>
<text text-anchor="middle" x="1877.69" y="-23.4" font-family="Arial" font-size="14.00">(AWS::Lambda::Function)</text>
</g>
<!-- RedisDatabase -->
<g id="node11" class="node">
<title>RedisDatabase</title>
<path fill="#ffcfb3" stroke="black" stroke-width="2" d="M2216.83,-65.45C2216.83,-69.07 2164.77,-72 2100.69,-72 2036.6,-72 1984.54,-69.07 1984.54,-65.45 1984.54,-65.45 1984.54,-6.55 1984.54,-6.55 1984.54,-2.93 2036.6,0 2100.69,0 2164.77,0 2216.83,-2.93 2216.83,-6.55 2216.83,-6.55 2216.83,-65.45 2216.83,-65.45"/>
<path fill="none" stroke="black" stroke-width="2" d="M2216.83,-65.45C2216.83,-61.84 2164.77,-58.91 2100.69,-58.91 2036.6,-58.91 1984.54,-61.84 1984.54,-65.45"/>
<text text-anchor="middle" x="2100.69" y="-40.2" font-family="Arial" font-size="14.00">RedisDatabase</text>
<text text-anchor="middle" x="2100.69" y="-23.4" font-family="Arial" font-size="14.00">(AWS::ElastiCache::CacheCluster)</text>
</g>
<!-- GitHubIntegration -->
<g id="node12" class="node">
<title>GitHubIntegration</title>
<path fill="#b7e0ff" stroke="black" stroke-width="2" d="M2400.22,-72C2400.22,-72 2247.16,-72 2247.16,-72 2241.16,-72 2235.16,-66 2235.16,-60 2235.16,-60 2235.16,-12 2235.16,-12 2235.16,-6 2241.16,0 2247.16,0 2247.16,0 2400.22,0 2400.22,0 2406.22,0 2412.22,-6 2412.22,-12 2412.22,-12 2412.22,-60 2412.22,-60 2412.22,-66 2406.22,-72 2400.22,-72"/>
<text text-anchor="middle" x="2323.69" y="-40.2" font-family="Arial" font-size="14.00">GitHubIntegration</text>
<text text-anchor="middle" x="2323.69" y="-23.4" font-family="Arial" font-size="14.00">(AWS::Lambda::Function)</text>
</g>
<!-- GoogleMapsIntegration -->
<g id="node13" class="node">
<title>GoogleMapsIntegration</title>
<path fill="#b7e0ff" stroke="black" stroke-width="2" d="M2595.22,-72C2595.22,-72 2442.16,-72 2442.16,-72 2436.16,-72 2430.16,-66 2430.16,-60 2430.16,-60 2430.16,-12 2430.16,-12 2430.16,-6 2436.16,0 2442.16,0 2442.16,0 2595.22,0 2595.22,0 2601.22,0 2607.22,-6 2607.22,-12 2607.22,-12 2607.22,-60 2607.22,-60 2607.22,-66 2601.22,-72 2595.22,-72"/>
<text text-anchor="middle" x="2518.69" y="-40.2" font-family="Arial" font-size="14.00">GoogleMapsIntegration</text>
<text text-anchor="middle" x="2518.69" y="-23.4" font-family="Arial" font-size="14.00">(AWS::Lambda::Function)</text>
</g>
<!-- GoogleDriveIntegration -->
<g id="node14" class="node">
<title>GoogleDriveIntegration</title>
<path fill="#b7e0ff" stroke="black" stroke-width="2" d="M2790.22,-72C2790.22,-72 2637.16,-72 2637.16,-72 2631.16,-72 2625.16,-66 2625.16,-60 2625.16,-60 2625.16,-12 2625.16,-12 2625.16,-6 2631.16,0 2637.16,0 2637.16,0 2790.22,0 2790.22,0 2796.22,0 2802.22,-6 2802.22,-12 2802.22,-12 2802.22,-60 2802.22,-60 2802.22,-66 2796.22,-72 2790.22,-72"/>
<text text-anchor="middle" x="2713.69" y="-40.2" font-family="Arial" font-size="14.00">GoogleDriveIntegration</text>
<text text-anchor="middle" x="2713.69" y="-23.4" font-family="Arial" font-size="14.00">(AWS::Lambda::Function)</text>
</g>
<!-- TimeTools -->
<g id="node15" class="node">
<title>TimeTools</title>
<path fill="#e6e6e6" stroke="black" stroke-width="2" d="M2985.22,-72C2985.22,-72 2832.16,-72 2832.16,-72 2826.16,-72 2820.16,-66 2820.16,-60 2820.16,-60 2820.16,-12 2820.16,-12 2820.16,-6 2826.16,0 2832.16,0 2832.16,0 2985.22,0 2985.22,0 2991.22,0 2997.22,-6 2997.22,-12 2997.22,-12 2997.22,-60 2997.22,-60 2997.22,-66 2991.22,-72 2985.22,-72"/>
<text text-anchor="middle" x="2908.69" y="-40.2" font-family="Arial" font-size="14.00">TimeTools</text>
<text text-anchor="middle" x="2908.69" y="-23.4" font-family="Arial" font-size="14.00">(AWS::Lambda::Function)</text>
</g>
<!-- URLFetcher -->
<g id="node16" class="node">
<title>URLFetcher</title>
<path fill="#b7e0ff" stroke="black" stroke-width="2" d="M3180.22,-72C3180.22,-72 3027.16,-72 3027.16,-72 3021.16,-72 3015.16,-66 3015.16,-60 3015.16,-60 3015.16,-12 3015.16,-12 3015.16,-6 3021.16,0 3027.16,0 3027.16,0 3180.22,0 3180.22,0 3186.22,0 3192.22,-6 3192.22,-12 3192.22,-12 3192.22,-60 3192.22,-60 3192.22,-66 3186.22,-72 3180.22,-72"/>
<text text-anchor="middle" x="3103.69" y="-40.2" font-family="Arial" font-size="14.00">URLFetcher</text>
<text text-anchor="middle" x="3103.69" y="-23.4" font-family="Arial" font-size="14.00">(AWS::Lambda::Function)</text>
</g>
<!-- GitRepositoryManager -->
<g id="node17" class="node">
<title>GitRepositoryManager</title>
<path fill="#b7e0ff" stroke="black" stroke-width="2" d="M3375.22,-72C3375.22,-72 3222.16,-72 3222.16,-72 3216.16,-72 3210.16,-66 3210.16,-60 3210.16,-60 3210.16,-12 3210.16,-12 3210.16,-6 3216.16,0 3222.16,0 3222.16,0 3375.22,0 3375.22,0 3381.22,0 3387.22,-6 3387.22,-12 3387.22,-12 3387.22,-60 3387.22,-60 3387.22,-66 3381.22,-72 3375.22,-72"/>
<text text-anchor="middle" x="3298.69" y="-40.2" font-family="Arial" font-size="14.00">GitRepositoryManager</text>
<text text-anchor="middle" x="3298.69" y="-23.4" font-family="Arial" font-size="14.00">(AWS::Lambda::Function)</text>
</g>
<!-- KubernetesClusterManager -->
<g id="node18" class="node">
<title>KubernetesClusterManager</title>
<path fill="#b7e0ff" stroke="black" stroke-width="2" d="M3580.29,-72C3580.29,-72 3417.08,-72 3417.08,-72 3411.08,-72 3405.08,-66 3405.08,-60 3405.08,-60 3405.08,-12 3405.08,-12 3405.08,-6 3411.08,0 3417.08,0 3417.08,0 3580.29,0 3580.29,0 3586.29,0 3592.29,-6 3592.29,-12 3592.29,-12 3592.29,-60 3592.29,-60 3592.29,-66 3586.29,-72 3580.29,-72"/>
<text text-anchor="middle" x="3498.69" y="-40.2" font-family="Arial" font-size="14.00">KubernetesClusterManager</text>
<text text-anchor="middle" x="3498.69" y="-23.4" font-family="Arial" font-size="14.00">(AWS::EKS::Cluster)</text>
</g>
<!-- DockerCLI -->
<g id="node19" class="node">
<title>DockerCLI</title>
<path fill="#b7e0ff" stroke="black" stroke-width="2" d="M3775.22,-72C3775.22,-72 3622.16,-72 3622.16,-72 3616.16,-72 3610.16,-66 3610.16,-60 3610.16,-60 3610.16,-12 3610.16,-12 3610.16,-6 3616.16,0 3622.16,0 3622.16,0 3775.22,0 3775.22,0 3781.22,0 3787.22,-6 3787.22,-12 3787.22,-12 3787.22,-60 3787.22,-60 3787.22,-66 3781.22,-72 3775.22,-72"/>
<text text-anchor="middle" x="3698.69" y="-40.2" font-family="Arial" font-size="14.00">DockerCLI</text>
<text text-anchor="middle" x="3698.69" y="-23.4" font-family="Arial" font-size="14.00">(AWS::Lambda::Function)</text>
</g>
<!-- PuppeteerBrowser -->
<g id="node20" class="node">
<title>PuppeteerBrowser</title>
<path fill="#b7e0ff" stroke="black" stroke-width="2" d="M3970.22,-72C3970.22,-72 3817.16,-72 3817.16,-72 3811.16,-72 3805.16,-66 3805.16,-60 3805.16,-60 3805.16,-12 3805.16,-12 3805.16,-6 3811.16,0 3817.16,0 3817.16,0 3970.22,0 3970.22,0 3976.22,0 3982.22,-6 3982.22,-12 3982.22,-12 3982.22,-60 3982.22,-60 3982.22,-66 3976.22,-72 3970.22,-72"/>
<text text-anchor="middle" x="3893.69" y="-40.2" font-family="Arial" font-size="14.00">PuppeteerBrowser</text>
<text text-anchor="middle" x="3893.69" y="-23.4" font-family="Arial" font-size="14.00">(AWS::Lambda::Function)</text>
</g>
<!-- LocalFileSystem -->
<g id="node21" class="node">
<title>LocalFileSystem</title>
<path fill="#fff5cd" stroke="black" stroke-width="2" d="M4169.3,-65.45C4169.3,-69.07 4131.38,-72 4084.69,-72 4038,-72 4000.07,-69.07 4000.07,-65.45 4000.07,-65.45 4000.07,-6.55 4000.07,-6.55 4000.07,-2.93 4038,0 4084.69,0 4131.38,0 4169.3,-2.93 4169.3,-6.55 4169.3,-6.55 4169.3,-65.45 4169.3,-65.45"/>
<path fill="none" stroke="black" stroke-width="2" d="M4169.3,-65.45C4169.3,-61.84 4131.38,-58.91 4084.69,-58.91 4038,-58.91 4000.07,-61.84 4000.07,-65.45"/>
<text text-anchor="middle" x="4084.69" y="-40.2" font-family="Arial" font-size="14.00">LocalFileSystem</text>
<text text-anchor="middle" x="4084.69" y="-23.4" font-family="Arial" font-size="14.00">(AWS::EFS::FileSystem)</text>
</g>
<!-- SafetyContainer -->
<g id="node22" class="node">
<title>SafetyContainer</title>
<path fill="#b7e0ff" stroke="black" stroke-width="2" d="M4352.22,-72C4352.22,-72 4199.16,-72 4199.16,-72 4193.16,-72 4187.16,-66 4187.16,-60 4187.16,-60 4187.16,-12 4187.16,-12 4187.16,-6 4193.16,0 4199.16,0 4199.16,0 4352.22,0 4352.22,0 4358.22,0 4364.22,-6 4364.22,-12 4364.22,-12 4364.22,-60 4364.22,-60 4364.22,-66 4358.22,-72 4352.22,-72"/>
<text text-anchor="middle" x="4275.69" y="-40.2" font-family="Arial" font-size="14.00">SafetyContainer</text>
<text text-anchor="middle" x="4275.69" y="-23.4" font-family="Arial" font-size="14.00">(AWS::Lambda::Function)</text>
</g>
</g>
</svg>
